<?xml version="1.0" standalone="no"?><!DOCTYPE svg PUBLIC "-//W3C//DTD SVG 1.1//EN" "http://www.w3.org/Graphics/SVG/1.1/DTD/svg11.dtd"><svg t="1675916833962" class="icon" viewBox="0 0 1024 1024" version="1.1" xmlns="http://www.w3.org/2000/svg" p-id="1151" xmlns:xlink="http://www.w3.org/1999/xlink" width="200" height="200"><path d="M672 288c0-17.6-14.4-32-32-32H288c-17.6 0-32 14.4-32 32s14.4 32 32 32h352c17.6 0 32-14.4 32-32zM288 448c-17.6 0-32 14.4-32 32s14.4 32 32 32h160c17.6 0 32-14.4 32-32s-14.4-32-32-32H288zM704 448c-141.385 0-256 114.615-256 256s114.615 256 256 256 256-114.615 256-256-114.615-256-256-256z m123.596 214.73L699.802 790.525c-12.445 12.445-32.81 12.445-45.255 0a31.892 31.892 0 0 1-3.124-3.633l-69.356-69.356c-13.71-13.71-14.745-35.11-2.3-47.555s33.845-11.41 47.555 2.3l50.107 50.107 104.912-104.912c12.445-12.445 32.81-12.445 45.255 0 12.445 12.444 12.445 32.809 0 45.254z" p-id="1152"></path><path d="M224 864c-35.2 0-64-28.8-64-64V192c0-35.2 28.8-64 64-64h480c35.2 0 64 28.8 64 64v198.407a317.482 317.482 0 0 1 64 20.246V192c0-70.4-57.6-128-128-128H224c-70.4 0-128 57.6-128 128v608c0 70.4 57.6 128 128 128h251.505a321.192 321.192 0 0 1-48.685-64H224z" p-id="1153"></path></svg>