<?xml version="1.0" standalone="no"?><!DOCTYPE svg PUBLIC "-//W3C//DTD SVG 1.1//EN"
  "http://www.w3.org/Graphics/SVG/1.1/DTD/svg11.dtd">
<svg t="1680084852362" class="icon" viewBox="0 0 1024 1024" version="1.1" xmlns="http://www.w3.org/2000/svg" p-id="1546"
     xmlns:xlink="http://www.w3.org/1999/xlink" width="200" height="200">
  <path
    d="M870.4 0H358.4a102.4 102.4 0 0 0-102.4 102.4v102.4H153.6a102.4 102.4 0 0 0-102.4 102.4v614.4a102.4 102.4 0 0 0 102.4 102.4h512a102.4 102.4 0 0 0 102.4-102.4v-102.4h102.4a102.4 102.4 0 0 0 102.4-102.4V102.4a102.4 102.4 0 0 0-102.4-102.4z m-204.8 921.6H153.6V307.2h512z m204.8-204.8h-102.4V307.2a102.4 102.4 0 0 0-102.4-102.4H358.4V102.4h512z"
    p-id="1547"></path>
  <path
    d="M307.2 512h204.8a51.2 51.2 0 0 0 0-102.4H307.2a51.2 51.2 0 0 0 0 102.4zM307.2 665.6h204.8a51.2 51.2 0 0 0 0-102.4H307.2a51.2 51.2 0 0 0 0 102.4zM307.2 819.2h204.8a51.2 51.2 0 0 0 0-102.4H307.2a51.2 51.2 0 0 0 0 102.4z"
    p-id="1548"></path>
</svg>
