<?xml version="1.0" standalone="no"?><!DOCTYPE svg PUBLIC "-//W3C//DTD SVG 1.1//EN"
  "http://www.w3.org/Graphics/SVG/1.1/DTD/svg11.dtd">
<svg t="1680084860168" class="icon" viewBox="0 0 1024 1024" version="1.1" xmlns="http://www.w3.org/2000/svg" p-id="1686"
     xmlns:xlink="http://www.w3.org/1999/xlink" width="200" height="200">
  <path
    d="M895.9 767.6h-767c-35.3 0-64-28.7-64-64V129c0-35.3 28.7-64 64-64h767c35.3 0 64 28.7 64 64v574.7c0 35.2-28.7 63.9-64 63.9z m-766.9-64h766.9l0.1-0.1V128.9l-0.1-0.1H129l-0.1 0.1 0.1 574.7z"
    fill="" p-id="1687"></path>
  <path
    d="M512.1 847.4c-38 0-74.1-7.6-101.7-21.4-33.1-16.5-51.3-40.5-51.3-67.6 0-13.8 11.2-25 25-25s25 11.2 25 25c0 13.7 39.1 38.9 103 38.9s103-25.2 103-38.9c0-13.8 11.2-25 25-25s25 11.2 25 25c0 27-18.2 51-51.3 67.6-27.6 13.8-63.7 21.4-101.7 21.4zM160.9 960.6c-17.7 0-32-14.3-32-32s14.3-32 32-32l703.4-0.7c17.7 0 32 14.3 32 32s-14.3 32-32 32l-703.4 0.7zM600.1 537.5H423.3c-8.2 0-14.8-6.6-14.8-14.8s6.6-14.8 14.8-14.8h176.8c8.2 0 14.8 6.6 14.8 14.8s-6.6 14.8-14.8 14.8z"
    fill="" p-id="1688"></path>
  <path
    d="M676.6 626.3H348.9c-15.7 0-28.5-12.8-28.5-28.6V239.3c0-15.8 12.8-28.6 28.5-28.6h246.2c8.2 0 14.8 6.6 14.8 14.8s-6.6 14.8-14.8 14.8H350v356.3h325.5v-267c0-8.2 6.6-14.8 14.8-14.8s14.8 6.6 14.8 14.8v268c0.1 15.8-12.7 28.7-28.5 28.7z"
    fill="" p-id="1689"></path>
  <path
    d="M600.7 418.6H423c-8.2 0-14.8-6.6-14.8-14.8S414.8 389 423 389h177.7c8.2 0 14.8 6.6 14.8 14.8s-6.6 14.8-14.8 14.8zM600.7 477.9H423c-8.2 0-14.8-6.6-14.8-14.8s6.6-14.8 14.8-14.8h177.7c8.2 0 14.8 6.6 14.8 14.8s-6.6 14.8-14.8 14.8zM690.1 344h-88.8c-16.4 0-29.7-13.3-29.7-29.7v-88.8c0-8.2 6.6-14.8 14.8-14.8s14.8 6.6 14.8 14.8v88.8H690c8.2 0 14.8 6.6 14.8 14.8s-6.5 14.9-14.7 14.9z"
    fill="" p-id="1690"></path>
  <path
    d="M690.2 344.5c-4 0-8.1-1.6-11-4.9l-93.7-103.1c-5.5-6.1-5.1-15.5 1-21s15.4-5.1 21 1l93.7 103.1c5.5 6.1 5.1 15.5-1 21-2.8 2.6-6.4 3.9-10 3.9z"
    fill="" p-id="1691"></path>
</svg>
