<?xml version="1.0" standalone="no"?><!DOCTYPE svg PUBLIC "-//W3C//DTD SVG 1.1//EN"
  "http://www.w3.org/Graphics/SVG/1.1/DTD/svg11.dtd">
<svg t="1681785928813" class="icon" viewBox="0 0 1024 1024" version="1.1" xmlns="http://www.w3.org/2000/svg" p-id="1801"
     xmlns:xlink="http://www.w3.org/1999/xlink" width="200" height="200">
  <path
    d="M853.333333 42.666667a85.333333 85.333333 0 0 1 85.333334 85.333333v768a85.333333 85.333333 0 0 1-85.333334 85.333333H170.666667a85.333333 85.333333 0 0 1-85.333334-85.333333V128a85.333333 85.333333 0 0 1 85.333334-85.333333h682.666666z m0 85.333333H170.666667v768h682.666666V128z m-341.333333 213.333333a42.666667 42.666667 0 0 1 0 85.333334H298.666667a42.666667 42.666667 0 1 1 0-85.333334h213.333333z m213.333333-128a42.666667 42.666667 0 0 1 0 85.333334H298.666667a42.666667 42.666667 0 1 1 0-85.333334h426.666666z"
    fill="" p-id="1802"></path>
  <path
    d="M659.370667 759.338667c-28.928 0-51.328 21.034667-51.328 47.018666 0 25.941333 22.4 46.976 51.328 46.976s51.328-21.034667 51.328-46.976c0-26.026667-22.4-47.018667-51.328-47.018666z m2.645333-340.138667c-43.434667 0-82.218667 14.165333-106.581333 40.874667-24.362667 26.666667-42.112 53.162667-43.434667 81.621333-1.28 28.416 71.082667 22.229333 73.685333 8.661333 2.645333-14.848 14.506667-38.357333 28.970667-49.493333 13.141333-11.093333 30.250667-16.085333 51.285333-16.085333s38.144 4.949333 50.005334 16.085333c11.818667 9.898667 18.432 23.466667 18.432 37.12 0 11.093333-3.968 19.754667-10.538667 28.416-3.968 4.949333-18.432 17.322667-42.112 34.645333-23.68 17.322667-39.466667 34.645333-47.36 48.213334-7.893333 14.848-11.818667 32.170667-11.818667 54.442666v18.56h72.362667v-3.712c0-18.56 1.28-32.170667 5.248-39.594666 3.925333-8.661333 14.464-18.56 31.573333-32.170667 32.853333-25.941333 53.930667-45.738667 64.426667-60.586667 10.538667-14.848 14.506667-30.933333 14.506667-46.976 0-29.696-15.36-59.52-41.642667-84.266666-24.917333-26.666667-61.013333-35.754667-107.008-35.754667z"
    fill="" p-id="1803"></path>
</svg>
