<?xml version="1.0" standalone="no"?><!DOCTYPE svg PUBLIC "-//W3C//DTD SVG 1.1//EN"
  "http://www.w3.org/Graphics/SVG/1.1/DTD/svg11.dtd">
<svg t="1680084838373" class="icon" viewBox="0 0 1024 1024" version="1.1" xmlns="http://www.w3.org/2000/svg" p-id="1406"
     xmlns:xlink="http://www.w3.org/1999/xlink" width="200" height="200">
  <path
    d="M934.4 1024h-844.8c-49.152 0-89.6-40.448-89.6-89.6v-134.144c0-49.152 40.448-89.6 89.6-89.6h844.8c49.152 0 89.6 40.448 89.6 89.6v134.144c0 49.152-40.448 89.6-89.6 89.6z m-844.8-246.784c-12.8 0-23.04 10.24-23.04 23.04v134.144c0 12.8 10.24 23.04 23.04 23.04h844.8c12.8 0 23.04-10.24 23.04-23.04v-134.144c0-12.8-10.24-23.04-23.04-23.04h-844.8zM934.4 668.672h-844.8c-49.152 0-89.6-40.448-89.6-89.6v-134.144c0-49.152 40.448-89.6 89.6-89.6h844.8c49.152 0 89.6 40.448 89.6 89.6v134.144c0 49.152-40.448 89.6-89.6 89.6z m-844.8-246.784c-12.8 0-23.04 10.24-23.04 23.04v134.144c0 12.8 10.24 23.04 23.04 23.04h844.8c12.8 0 23.04-10.24 23.04-23.04v-134.144c0-12.8-10.24-23.04-23.04-23.04h-844.8zM934.4 313.344h-844.8c-49.152 0-89.6-40.448-89.6-89.6v-134.144c0-49.152 40.448-89.6 89.6-89.6h844.8c49.152 0 89.6 40.448 89.6 89.6v134.144c0 49.152-40.448 89.6-89.6 89.6z m-844.8-246.784c-12.8 0-23.04 10.24-23.04 23.04v134.144c0 12.8 10.24 23.04 23.04 23.04h844.8c12.8 0 23.04-10.24 23.04-23.04v-134.144c0-12.8-10.24-23.04-23.04-23.04h-844.8z"
    p-id="1407"></path>
  <path
    d="M167.424 193.024c-18.432 0-33.28-14.848-33.28-33.28s14.848-33.28 33.28-33.28 33.28 14.848 33.28 33.28-14.848 33.28-33.28 33.28zM167.424 545.28c-18.432 0-33.28-14.848-33.28-33.28s14.848-33.28 33.28-33.28 33.28 14.848 33.28 33.28-14.848 33.28-33.28 33.28zM167.424 900.608c-18.432 0-33.28-14.848-33.28-33.28s14.848-33.28 33.28-33.28 33.28 14.848 33.28 33.28-14.848 33.28-33.28 33.28zM308.224 834.048h549.376c18.432 0 33.28 14.848 33.28 33.28s-14.848 33.28-33.28 33.28h-549.376c-18.432 0-33.28-14.848-33.28-33.28s14.848-33.28 33.28-33.28zM308.224 478.72h362.496c18.432 0 33.28 14.848 33.28 33.28s-14.848 33.28-33.28 33.28h-362.496c-18.432 0-33.28-14.848-33.28-33.28s14.848-33.28 33.28-33.28z"
    p-id="1408"></path>
</svg>
