<?xml version="1.0" standalone="no"?><!DOCTYPE svg PUBLIC "-//W3C//DTD SVG 1.1//EN" "http://www.w3.org/Graphics/SVG/1.1/DTD/svg11.dtd"><svg t="1675913059859" class="icon" viewBox="0 0 1024 1024" version="1.1" xmlns="http://www.w3.org/2000/svg" p-id="1261" xmlns:xlink="http://www.w3.org/1999/xlink" width="200" height="200"><path d="M403.2 620.8H217.6c-19.2 0-38.4-19.2-38.4-38.4s19.2-38.4 38.4-38.4h179.2c19.2 0 38.4 19.2 38.4 38.4 6.4 19.2-12.8 38.4-32 38.4zM345.6 38.4v147.2c0 19.2-19.2 38.4-38.4 38.4s-38.4-19.2-38.4-38.4V38.4c6.4-19.2 19.2-38.4 44.8-38.4 19.2 0 32 19.2 32 38.4zM742.4 38.4v147.2c0 19.2-19.2 38.4-38.4 38.4s-38.4-19.2-38.4-38.4V38.4c0-19.2 12.8-38.4 38.4-38.4 19.2 0 38.4 19.2 38.4 38.4z" p-id="1262"></path><path d="M1024 198.4c0-64-57.6-115.2-121.6-121.6H128c-64 0-128 51.2-128 121.6V896c0 70.4 57.6 128 128 128h384c19.2 0 38.4-19.2 38.4-38.4s-19.2-44.8-38.4-44.8H128c-25.6 0-44.8-19.2-44.8-44.8V441.6H1024V198.4zM76.8 364.8V198.4c0-25.6 19.2-44.8 44.8-44.8H896c19.2 6.4 38.4 25.6 38.4 44.8v166.4H76.8z" p-id="1263"></path><path d="M403.2 787.2H217.6c-19.2 0-38.4-19.2-38.4-38.4s19.2-38.4 38.4-38.4h179.2c19.2 0 38.4 19.2 38.4 38.4 6.4 19.2-12.8 38.4-32 38.4zM1011.2 633.6c-19.2-19.2-44.8-19.2-57.6 0l-224 224-102.4-102.4c-12.8-12.8-38.4-12.8-57.6 0-12.8 12.8-12.8 38.4 0 57.6l134.4 134.4c6.4 6.4 6.4 6.4 12.8 6.4 12.8 6.4 32 0 44.8-6.4l249.6-249.6c12.8-25.6 12.8-51.2 0-64z" p-id="1264"></path></svg>