<?xml version="1.0" standalone="no"?><!DOCTYPE svg PUBLIC "-//W3C//DTD SVG 1.1//EN"
  "http://www.w3.org/Graphics/SVG/1.1/DTD/svg11.dtd">
<svg t="1675913457588" class="icon" viewBox="0 0 1024 1024" version="1.1" xmlns="http://www.w3.org/2000/svg" p-id="2186"
     xmlns:xlink="http://www.w3.org/1999/xlink" width="200" height="200">
  <path
    d="M602.7 1023.5h-460C64 1023.5 0 958.8 0 879.2V144.8C0 65.2 64 0.5 142.7 0.5h589.4c78.7 0 142.7 64.7 142.7 144.3v427.3c0 23.2-18.8 42-42 42s-42-18.8-42-42V144.8c0-33.3-26.4-60.3-58.7-60.3H142.8c-32.4 0-58.7 27.1-58.7 60.3v734.3c0 33.3 26.4 60.3 58.7 60.3h460c23.2 0 42 18.8 42 42s-18.9 42.1-42.1 42.1z"
    fill="" p-id="2187"></path>
  <path
    d="M633.5 204.9H239.4c-23.5 0-42.7 19.2-42.7 42.7s19.2 42.7 42.7 42.7h394.1c23.5 0 42.7-19.2 42.7-42.7s-19.2-42.7-42.7-42.7zM633.5 403.5H239.4c-23.5 0-42.7 19.2-42.7 42.7s19.2 42.7 42.7 42.7h394.1c23.5 0 42.7-19.2 42.7-42.7s-19.2-42.7-42.7-42.7zM468.5 602.1H239.4c-23.5 0-42.7 19.2-42.7 42.7 0 23.5 19.2 42.7 42.7 42.7h229c23.5 0 42.7-19.2 42.7-42.7 0-23.5-19.2-42.7-42.6-42.7zM671.4 739.8c-23.2 0-42 18.8-42 42s18.8 42 42 42 42-18.8 42-42-18.8-42-42-42zM823.1 739.8c-23.2 0-42 18.8-42 42s18.8 42 42 42 42-18.8 42-42-18.8-42-42-42zM974.8 739.8c-23.2 0-42 18.8-42 42s18.8 42 42 42 42-18.8 42-42-18.8-42-42-42z"
    fill="" p-id="2188"></path>
</svg>
